<?xml version="1.0" encoding="utf-8"?>
<!-- Generator: Adobe Illustrator 23.0.4, SVG Export Plug-In . SVG Version: 6.00 Build 0)  -->
<svg version="1.1" id="Layer_1" xmlns="http://www.w3.org/2000/svg" xmlns:xlink="http://www.w3.org/1999/xlink" x="0px" y="0px"
	 viewBox="0 0 32 32" style="enable-background:new 0 0 32 32;" xml:space="preserve">
<style type="text/css">
	.st0{fill:#008AD0;}
	.st1{fill:#333333;}
</style>
<g>
	<path class="st1" d="M16,31C7.729,31,1,24.271,1,16S7.729,1,16,1s15,6.729,15,15S24.271,31,16,31z M16,3C8.832,3,3,8.832,3,16
		s5.832,13,13,13s13-5.832,13-13S23.168,3,16,3z"/>
</g>
<g>
	<path class="st0" d="M16,12c-1.654,0-3-1.346-3-3s1.346-3,3-3s3,1.346,3,3S17.654,12,16,12z M16,8c-0.552,0-1,0.448-1,1
		s0.448,1,1,1s1-0.448,1-1S16.552,8,16,8z"/>
</g>
<g>
	<path class="st0" d="M16,26c-1.654,0-3-1.346-3-3v-7c0-1.654,1.346-3,3-3s3,1.346,3,3v7C19,24.654,17.654,26,16,26z M16,15
		c-0.552,0-1,0.448-1,1v7c0,0.552,0.448,1,1,1s1-0.448,1-1v-7C17,15.448,16.552,15,16,15z"/>
</g>
</svg>
