<?xml version="1.0" standalone="no"?>
<!DOCTYPE svg PUBLIC "-//W3C//DTD SVG 20010904//EN"
 "http://www.w3.org/TR/2001/REC-SVG-20010904/DTD/svg10.dtd">
<svg version="1.0" xmlns="http://www.w3.org/2000/svg"
 width="466.000000pt" height="512.000000pt" viewBox="0 0 466.000000 512.000000"
 preserveAspectRatio="xMidYMid meet">

<g transform="translate(0.000000,512.000000) scale(0.100000,-0.100000)"
fill="#000000" stroke="none">
<path d="M2247 5060 c-155 -117 -411 -271 -583 -351 -465 -215 -906 -309
-1451 -309 l-201 0 -7 -103 c-9 -125 9 -651 30 -882 157 -1727 877 -2840 2178
-3365 l119 -48 96 40 c961 396 1610 1085 1950 2069 201 581 297 1293 275 2034
l-6 220 -150 -3 c-591 -14 -1263 205 -2020 659 -81 49 -151 89 -156 89 -4 0
-38 -23 -74 -50z m253 -339 c156 -93 468 -252 620 -316 183 -76 456 -162 617
-194 198 -40 318 -52 498 -50 l150 1 0 -394 c0 -402 -7 -524 -46 -803 -88
-624 -292 -1175 -598 -1610 -137 -196 -346 -419 -535 -571 -204 -165 -538
-359 -783 -457 l-93 -37 -102 41 c-1031 410 -1667 1271 -1877 2539 -67 405
-84 657 -81 1222 l0 106 113 -5 c221 -11 595 28 828 87 368 92 740 270 1048
502 63 48 65 48 90 31 14 -9 82 -51 151 -92z"/>
<path d="M2230 4251 c-271 -172 -609 -324 -885 -396 -179 -48 -305 -65 -472
-65 l-143 0 0 -269 c0 -149 5 -328 11 -398 91 -1109 571 -1866 1424 -2245 78
-35 144 -58 165 -58 21 0 87 23 165 58 729 324 1184 920 1360 1782 52 259 66
410 72 783 l5 347 -143 0 c-169 0 -295 17 -474 65 -276 73 -596 215 -888 396
-43 27 -88 49 -100 48 -12 0 -56 -22 -97 -48z m822 -944 c84 -49 101 -113 49
-183 -16 -21 -142 -151 -279 -288 l-251 -249 183 -192 c210 -220 221 -240 220
-377 -1 -140 -76 -243 -157 -216 -21 7 -117 97 -277 260 l-245 250 -230 -238
c-126 -131 -247 -250 -269 -266 -29 -21 -50 -28 -84 -28 -39 0 -50 5 -87 43
-48 47 -65 94 -65 177 0 99 27 138 255 373 l206 211 -143 146 c-345 350 -348
353 -348 396 0 52 20 79 83 111 45 23 64 27 142 28 135 0 152 -10 362 -225
l177 -181 215 214 c260 259 276 269 417 264 66 -3 89 -8 126 -30z"/>
</g>
</svg>
